
<svg
  xmlns="http://www.w3.org/2000/svg"
  viewBox="0 0 501.56252 501.56251"
  width="535"
  height="535"
  fill="currentColor"
  class="nix-snowflake"
>
  <g transform="translate(-156.48372,537.56136)">
    <g transform="matrix(0.09048806,0,0,0.09048806,142.32381,-419.8252)">
      <g transform="matrix(11.047619,0,0,11.047619,-1572.2888,9377.7107)">
        <!-- Arm 1 -->
        <g transform="rotate(-60,226.35754,-449.37199)">
          <path d="m 449.71876,-420.51322 122.19683,211.67512 -56.15706,0.5268 -32.6236,-56.8692 -32.85645,56.5653 -27.90237,-0.011 -14.29086,-24.6896 46.81047,-80.4901 -33.22946,-57.8257 z" />
        </g>

        <!-- Arm 2 -->
        <path d="m 309.54892,-710.38827 122.19683,211.67512 -56.15706,0.5268 -32.6236,-56.8692 -32.85645,56.5653 -27.90237,-0.011 -14.29086,-24.6896 46.81047,-80.4901 -33.22946,-57.8256 z" />

        <!-- Arm 3 -->
        <g transform="rotate(60,728.23563,-692.24036)">
          <path d="m 449.71876,-420.51322 122.19683,211.67512 -56.15706,0.5268 -32.6236,-56.8692 -32.85645,56.5653 -27.90237,-0.011 -14.29086,-24.6896 46.81047,-80.4901 -33.22946,-57.8257 z" />
        </g>

        <!-- Arm 4 -->
        <g transform="rotate(180,477.5036,-570.81898)">
          <path d="m 449.71876,-420.51322 122.19683,211.67512 -56.15706,0.5268 -32.6236,-56.8692 -32.85645,56.5653 -27.90237,-0.011 -14.29086,-24.6896 46.81047,-80.4901 -33.22946,-57.8257 z" />
        </g>

        <!-- Arm 5 -->
        <g transform="rotate(120,407.33916,-716.08356)">
          <path d="m 309.54892,-710.38827 122.19683,211.67512 -56.15706,0.5268 -32.6236,-56.8692 -32.85645,56.5653 -27.90237,-0.011 -14.29086,-24.6896 46.81047,-80.4901 -33.22946,-57.8256 z" />
        </g>

        <!-- Arm 6 -->
        <g transform="rotate(-120,407.28823,-715.86995)">
          <path d="m 309.54892,-710.38827 122.19683,211.67512 -56.15706,0.5268 -32.6236,-56.8692 -32.85645,56.5653 -27.90237,-0.011 -14.29086,-24.6896 46.81047,-80.4901 -33.22946,-57.8256 z" />
        </g>
      </g>
    </g>
  </g>
</svg>

